<svg xmlns="http://www.w3.org/2000/svg" viewBox="0 0 82 82">
    <defs>
        <filter id="a">
            <feColorMatrix in="SourceGraphic" values="0 0 0 0 1.000000 0 0 0 0 1.000000 0 0 0 0 1.000000 0 0 0 1.000000 0"/>
        </filter>
    </defs>
    <g fill="currentColor" transform="translate(-147 -671)" filter="url(#a)" fill-rule="evenodd">
        <g fill="currentColor" fill-rule="nonzero">
            <path id="circle" d="M229 712c0-22.607-18.393-41-41-41s-41 18.393-41 41 18.393 41 41 41 41-18.393 41-41zm-77.903 0c0-20.35 16.553-36.903 36.903-36.903 20.35 0 36.903 16.553 36.903 36.903 0 20.35-16.553 36.903-36.903 36.903-20.35 0-36.903-16.553-36.903-36.903z"/>
            <path id="arrow" d="M188.946 731.41l11.455-11.604a2.072 2.072 0 000-2.913 2.009 2.009 0 00-2.876 0l-7.98 8.084v-30.905c0-1.146-.914-2.072-2.045-2.072-1.13 0-2.045.926-2.045 2.072v30.888l-7.98-8.084a2.009 2.009 0 00-2.876 0 2.072 2.072 0 000 2.913l11.455 11.605c.399.404.914.606 1.446.606.532 0 1.047-.185 1.446-.59z"/>
        </g>
    </g>
</svg>
