<svg xmlns="http://www.w3.org/2000/svg" viewBox="0 0 954 206">
    <g fill="currentColor" fill-rule="nonzero">
        <path id="title" d="M185.576 193.427c2.267 0 4.292-.302 6.073-.906 1.781-.605 3.3-1.43 4.555-2.479 1.255-1.047 2.207-2.276 2.854-3.687.648-1.41.972-2.901.972-4.473 0-1.45-.223-2.73-.668-3.838a9.02 9.02 0 00-1.852-2.901 12.898 12.898 0 00-2.764-2.176 22.915 22.915 0 00-3.461-1.663l-5.406-2.357c-.89-.363-1.75-.715-2.58-1.058a11.016 11.016 0 01-2.217-1.209 5.81 5.81 0 01-1.55-1.602c-.384-.604-.576-1.35-.576-2.236 0-1.612.648-2.881 1.943-3.808 1.296-.927 3.077-1.39 5.345-1.39 1.903 0 3.603.312 5.101.937a15.366 15.366 0 014.19 2.629l3.159-3.869c-1.539-1.53-3.38-2.74-5.527-3.626-2.146-.887-4.453-1.33-6.923-1.33-1.984 0-3.796.272-5.436.816-1.64.544-3.057 1.3-4.251 2.267a10.074 10.074 0 00-2.763 3.445 9.67 9.67 0 00-.972 4.292c0 1.45.253 2.73.76 3.838a10.093 10.093 0 001.973 2.901c.81.826 1.72 1.532 2.733 2.116a23.367 23.367 0 003.037 1.48l5.587 2.48c1.012.402 1.943.785 2.794 1.148.85.362 1.579.775 2.186 1.239a5.094 5.094 0 011.427 1.662c.344.645.516 1.41.516 2.297 0 1.773-.698 3.183-2.095 4.231-1.397 1.048-3.411 1.572-6.043 1.572-2.065 0-4.059-.434-5.982-1.3a19.461 19.461 0 01-5.193-3.415l-3.522 4.11a20.72 20.72 0 006.56 4.322c2.469 1.028 5.141 1.541 8.016 1.541zm36.257 0c1.943 0 3.806-.342 5.587-1.027a13.967 13.967 0 004.737-3.022c1.377-1.33 2.47-2.952 3.28-4.866.81-1.914 1.215-4.1 1.215-6.559 0-2.458-.405-4.654-1.215-6.588-.81-1.934-1.903-3.566-3.28-4.896a13.967 13.967 0 00-4.737-3.023 15.434 15.434 0 00-5.587-1.027c-1.943 0-3.806.342-5.587 1.027a13.967 13.967 0 00-4.738 3.023c-1.376 1.33-2.47 2.962-3.28 4.896-.809 1.934-1.214 4.13-1.214 6.588s.405 4.645 1.215 6.559c.81 1.914 1.903 3.536 3.28 4.866a13.967 13.967 0 004.737 3.022 15.434 15.434 0 005.587 1.027zm0-4.896c-2.672 0-4.778-.967-6.316-2.901-1.539-1.934-2.308-4.493-2.308-7.677 0-3.183.77-5.742 2.308-7.676 1.538-1.934 3.644-2.902 6.316-2.902 2.672 0 4.778.968 6.316 2.902 1.539 1.934 2.308 4.493 2.308 7.676 0 3.184-.77 5.743-2.308 7.677-1.538 1.934-3.644 2.901-6.316 2.901zm38.444 4.171V167.98h11.842v-4.836h-11.842v-2.176c0-2.256.546-4 1.64-5.228 1.093-1.23 2.874-1.844 5.344-1.844 1.255 0 2.399.1 3.431.302 1.033.202 2.116.544 3.25 1.028l1.335-4.413c-2.834-1.128-5.729-1.692-8.684-1.692-2.106 0-3.928.292-5.466.876-1.539.585-2.814 1.4-3.826 2.448-1.013 1.048-1.762 2.307-2.247 3.778-.486 1.471-.73 3.093-.73 4.866v2.055l-8.32.302v4.534h8.32v24.722h5.953zm40.022.725c1.7 0 3.36-.17 4.98-.513a41.185 41.185 0 004.434-1.18l-1.215-4.412a18.214 18.214 0 01-3.188.937 18.515 18.515 0 01-3.614.333c-2.713 0-4.585-.625-5.618-1.874-1.032-1.25-1.548-3.143-1.548-5.682V167.98h14.029v-4.836h-14.03v-8.16h-4.98l-.789 8.16-8.381.302v4.534h8.138v13.056c0 1.854.203 3.536.607 5.047.405 1.511 1.063 2.811 1.974 3.899s2.126 1.934 3.644 2.539c1.518.604 3.37.906 5.557.906zm26.297-.725l2.976-13.54c.324-1.813.597-3.405.82-4.775.223-1.37.435-2.66.638-3.868h.243c.283 1.53.536 2.992.759 4.382.223 1.39.476 2.79.759 4.2l3.037 13.601h7.166l5.952-29.558h-5.588l-3.158 16.2c-.243 1.41-.455 2.81-.637 4.2a62.63 62.63 0 01-.699 4.201h-.243c-.283-1.41-.556-2.81-.82-4.2-.263-1.39-.556-2.791-.88-4.201l-3.28-13.842h-4.737l-3.158 13.842a254.273 254.273 0 00-1.64 8.401h-.243c-.202-1.41-.405-2.81-.607-4.2a79.39 79.39 0 00-.729-4.201l-3.158-16.2h-6.012l6.194 29.558h7.045zm37.411.725c2.065 0 4.08-.453 6.043-1.36 1.964-.906 3.735-1.964 5.314-3.173h.183l.485 3.808h4.92v-17.77c0-3.91-1.033-6.972-3.098-9.189-2.064-2.216-5.162-3.324-9.292-3.324-1.295 0-2.56.12-3.795.363-1.235.241-2.43.564-3.584.967a28.027 28.027 0 00-3.249 1.36 40.838 40.838 0 00-2.733 1.48l2.247 4.05a36.01 36.01 0 014.768-2.296 14.245 14.245 0 015.314-1.028c2.632 0 4.504.645 5.618 1.934 1.113 1.29 1.71 2.841 1.791 4.654-3.725.283-6.913.706-9.565 1.27-2.652.564-4.818 1.29-6.498 2.176-1.68.886-2.916 1.954-3.705 3.203-.79 1.25-1.184 2.7-1.184 4.353 0 1.29.253 2.458.759 3.505a8.014 8.014 0 002.095 2.69c.89.746 1.954 1.32 3.188 1.723 1.235.403 2.561.604 3.978.604zm1.7-4.775c-1.619 0-3.005-.322-4.16-.967-1.153-.645-1.73-1.713-1.73-3.204 0-.886.243-1.692.729-2.417.486-.726 1.305-1.38 2.46-1.965 1.153-.584 2.702-1.068 4.645-1.45 1.944-.383 4.373-.696 7.288-.937v7.011c-1.538 1.25-3.067 2.217-4.585 2.902-1.518.685-3.067 1.027-4.646 1.027zm34.497 4.05v-16.804c1.66-2.982 3.482-5.077 5.466-6.286 1.984-1.209 4.049-1.813 6.195-1.813 1.133 0 2.064.08 2.793.241.729.161 1.6.403 2.612.726l1.336-5.138a11.89 11.89 0 00-2.733-.937c-.89-.181-1.923-.272-3.097-.272-2.673 0-5.112.665-7.319 1.995-2.206 1.33-4.079 3.203-5.617 5.621h-.183l-.486-6.89h-4.98v29.557h6.013zm42.087.725c2.308 0 4.424-.332 6.347-.997s3.654-1.48 5.193-2.448l-2.126-3.808a19.133 19.133 0 01-4.1 1.874c-1.396.443-2.904.665-4.524.665-2.996 0-5.476-.816-7.44-2.448-1.963-1.632-3.046-3.9-3.249-6.8h22.35c.08-.363.151-.817.212-1.36.06-.545.091-1.119.091-1.723 0-2.055-.303-3.94-.91-5.652-.608-1.713-1.499-3.183-2.673-4.412-1.174-1.23-2.601-2.187-4.282-2.872-1.68-.685-3.613-1.027-5.8-1.027-1.943 0-3.826.352-5.648 1.058a14.639 14.639 0 00-4.858 3.082c-1.417 1.35-2.551 2.982-3.401 4.896-.85 1.915-1.276 4.08-1.276 6.498s.415 4.584 1.245 6.498c.83 1.914 1.974 3.536 3.432 4.866 1.457 1.33 3.168 2.347 5.132 3.053 1.963.705 4.059 1.057 6.285 1.057zm7.167-18.073H432.33c.405-2.66 1.478-4.694 3.22-6.105 1.74-1.41 3.724-2.115 5.95-2.115 2.552 0 4.515.705 5.892 2.115 1.377 1.41 2.065 3.446 2.065 6.105zm77.92 17.348v-5.077h-19.496v-13.057h15.973v-5.077h-15.973v-11.303h18.888v-5.078h-24.96v39.592h25.567zm15.547 0v-20.37c1.539-1.572 2.935-2.75 4.19-3.536 1.256-.786 2.673-1.179 4.252-1.179 2.267 0 3.866.615 4.798 1.844.93 1.229 1.396 3.133 1.396 5.712v17.529h6.013v-18.315c0-3.868-.81-6.83-2.43-8.885-1.619-2.056-4.17-3.083-7.652-3.083-2.307 0-4.332.534-6.073 1.602a25.284 25.284 0 00-4.858 3.898h-.243l-.486-4.775h-4.92v29.558h6.013zM585.681 206c2.55 0 4.858-.272 6.923-.816 2.065-.544 3.826-1.29 5.284-2.236 1.457-.947 2.58-2.046 3.37-3.295s1.185-2.579 1.185-3.99c0-2.538-.942-4.361-2.824-5.47-1.883-1.108-4.768-1.662-8.655-1.662h-6.316c-1.903 0-3.36-.241-4.373-.725-1.012-.484-1.518-1.27-1.518-2.357 0-1.169.688-2.197 2.065-3.083.81.322 1.63.564 2.46.725.83.161 1.609.242 2.338.242 1.62 0 3.138-.222 4.555-.665 1.417-.443 2.652-1.098 3.704-1.964a9.354 9.354 0 002.49-3.174c.608-1.249.911-2.68.911-4.291 0-1.169-.242-2.227-.728-3.174-.486-.947-1.033-1.743-1.64-2.387h7.41v-4.534h-12.208c-1.336-.483-2.834-.725-4.494-.725-1.62 0-3.148.242-4.585.725-1.438.484-2.703 1.189-3.796 2.116a10.38 10.38 0 00-2.612 3.355c-.648 1.31-.971 2.79-.971 4.442 0 1.773.364 3.295 1.093 4.564.729 1.27 1.62 2.287 2.672 3.052v.242c-1.134.766-2.014 1.642-2.642 2.63-.627.987-.941 1.964-.941 2.931 0 1.25.303 2.267.91 3.053a6.814 6.814 0 002.126 1.843v.242c-1.538.887-2.722 1.884-3.552 2.992-.83 1.108-1.245 2.247-1.245 3.415 0 2.62 1.214 4.604 3.643 5.954 2.43 1.35 5.75 2.025 9.96 2.025zm-.061-26.536c-1.7 0-3.158-.564-4.373-1.692-1.215-1.128-1.822-2.7-1.822-4.715 0-1.934.607-3.485 1.822-4.654s2.672-1.753 4.373-1.753c1.7 0 3.158.584 4.373 1.753 1.214 1.169 1.822 2.72 1.822 4.654 0 2.015-.608 3.587-1.822 4.715-1.215 1.128-2.673 1.692-4.373 1.692zm.668 22.547c-2.956 0-5.213-.434-6.772-1.3-1.559-.866-2.338-2.005-2.338-3.415 0-.806.243-1.572.729-2.297.486-.725 1.336-1.43 2.55-2.116a9.608 9.608 0 002.065.393c.73.06 1.56.09 2.49.09h5.223c2.146 0 3.756.212 4.829.636 1.073.423 1.61 1.279 1.61 2.569 0 .725-.244 1.41-.73 2.055-.486.644-1.184 1.219-2.095 1.722-.91.504-2.004.907-3.28 1.21-1.275.301-2.702.453-4.281.453zm39.233-44.488c1.296 0 2.369-.383 3.219-1.149.85-.765 1.275-1.793 1.275-3.082 0-1.29-.425-2.328-1.275-3.113-.85-.786-1.923-1.179-3.219-1.179-1.296 0-2.369.393-3.219 1.179-.85.785-1.275 1.823-1.275 3.113s.425 2.317 1.275 3.082c.85.766 1.923 1.149 3.219 1.149zm3.522 35.179v-29.558h-19.312v4.836h13.3v24.722h6.012zm23.2 0v-20.37c1.539-1.572 2.936-2.75 4.19-3.536 1.256-.786 2.673-1.179 4.252-1.179 2.267 0 3.867.615 4.798 1.844s1.397 3.133 1.397 5.712v17.529h6.012v-18.315c0-3.868-.81-6.83-2.43-8.885-1.619-2.056-4.17-3.083-7.651-3.083-2.308 0-4.333.534-6.074 1.602a25.284 25.284 0 00-4.858 3.898h-.243l-.486-4.775h-4.92v29.558h6.013zm45.124.725c2.308 0 4.424-.332 6.347-.997s3.654-1.48 5.193-2.448l-2.126-3.808a19.133 19.133 0 01-4.1 1.874c-1.396.443-2.905.665-4.524.665-2.996 0-5.476-.816-7.44-2.448-1.964-1.632-3.047-3.9-3.249-6.8h22.35c.08-.363.151-.817.212-1.36.06-.545.091-1.119.091-1.723 0-2.055-.303-3.94-.91-5.652-.608-1.713-1.499-3.183-2.673-4.412-1.174-1.23-2.601-2.187-4.282-2.872-1.68-.685-3.613-1.027-5.8-1.027-1.943 0-3.826.352-5.648 1.058a14.639 14.639 0 00-4.858 3.082c-1.417 1.35-2.551 2.982-3.401 4.896-.85 1.915-1.276 4.08-1.276 6.498s.415 4.584 1.245 6.498c.83 1.914 1.974 3.536 3.432 4.866 1.457 1.33 3.168 2.347 5.132 3.053 1.963.705 4.059 1.057 6.285 1.057zm7.167-18.073h-17.127c.405-2.66 1.478-4.694 3.22-6.105 1.74-1.41 3.724-2.115 5.95-2.115 2.552 0 4.515.705 5.892 2.115 1.376 1.41 2.065 3.446 2.065 6.105zm29.273 18.073c2.308 0 4.423-.332 6.346-.997 1.924-.665 3.654-1.48 5.193-2.448l-2.126-3.808a19.133 19.133 0 01-4.1 1.874c-1.396.443-2.904.665-4.524.665-2.996 0-5.476-.816-7.44-2.448-1.963-1.632-3.046-3.9-3.249-6.8h22.35c.08-.363.152-.817.212-1.36.061-.545.092-1.119.092-1.723 0-2.055-.304-3.94-.911-5.652-.608-1.713-1.498-3.183-2.673-4.412-1.174-1.23-2.601-2.187-4.281-2.872-1.68-.685-3.614-1.027-5.8-1.027-1.944 0-3.826.352-5.648 1.058a14.639 14.639 0 00-4.859 3.082c-1.417 1.35-2.55 2.982-3.4 4.896-.851 1.915-1.276 4.08-1.276 6.498s.415 4.584 1.245 6.498c.83 1.914 1.974 3.536 3.431 4.866 1.458 1.33 3.168 2.347 5.132 3.053 1.964.705 4.059 1.057 6.286 1.057zm7.166-18.073h-17.126c.405-2.66 1.478-4.694 3.218-6.105 1.741-1.41 3.725-2.115 5.952-2.115 2.551 0 4.515.705 5.891 2.115 1.377 1.41 2.065 3.446 2.065 6.105zm23.625 17.348v-16.804c1.66-2.982 3.482-5.077 5.466-6.286 1.984-1.209 4.049-1.813 6.195-1.813 1.133 0 2.065.08 2.793.241.73.161 1.6.403 2.612.726l1.336-5.138a11.89 11.89 0 00-2.733-.937c-.89-.181-1.923-.272-3.097-.272-2.673 0-5.112.665-7.319 1.995-2.206 1.33-4.079 3.203-5.617 5.621h-.182l-.486-6.89h-4.98v29.557h6.012z"/>
        <path id="first" d="M95.309 15.014c2.052 0 3.774-.625 5.166-1.876 1.393-1.25 2.089-2.943 2.089-5.076 0-2.133-.696-3.844-2.089-5.131C99.083 1.644 97.361 1 95.31 1c-2.126 0-3.866.644-5.222 1.931-1.356 1.287-2.034 2.998-2.034 5.131s.678 3.825 2.034 5.076c1.356 1.25 3.096 1.876 5.222 1.876zm5.496 64.662V26.048H66.947v7.393H91.79v46.235h9.014zm42.872 0V65.11l12.642-12.248 19.677 26.814h10.114l-24.184-32.331 21.326-21.297h-10.334l-28.801 28.249h-.44V1.11h-9.014v78.566h9.014zM225.245 81c4.324 0 8.171-.625 11.542-1.876 3.371-1.25 6.376-2.722 9.014-4.414l-3.188-5.958c-2.491 1.545-5.038 2.758-7.64 3.641-2.601.883-5.478 1.324-8.629 1.324-2.931 0-5.625-.441-8.08-1.324s-4.58-2.133-6.376-3.752c-1.795-1.618-3.224-3.567-4.287-5.848-1.063-2.28-1.63-4.855-1.704-7.724h41.773c.147-.662.238-1.453.275-2.372.037-.92.055-1.858.055-2.814 0-3.752-.55-7.173-1.649-10.262-1.1-3.09-2.693-5.738-4.782-7.945s-4.635-3.917-7.64-5.131c-3.005-1.214-6.412-1.82-10.223-1.82-3.445 0-6.798.643-10.059 1.93a26.438 26.438 0 00-8.684 5.573c-2.529 2.427-4.562 5.388-6.101 8.882-1.54 3.495-2.309 7.449-2.309 11.862 0 4.414.751 8.35 2.254 11.807 1.502 3.458 3.554 6.382 6.156 8.773 2.601 2.39 5.643 4.23 9.124 5.517 3.481 1.287 7.2 1.931 11.158 1.931zm14.4-32.441h-33.858c.367-2.649 1.1-5.003 2.199-7.062 1.1-2.06 2.455-3.807 4.067-5.242A16.765 16.765 0 01217.495 33a18.29 18.29 0 016.32-1.103c4.984 0 8.868 1.434 11.653 4.303 2.785 2.869 4.177 6.989 4.177 12.359z"/>
        <path id="last" d="M605.017 80c3.955 0 7.745-.737 11.37-2.21a33.135 33.135 0 009.83-6.188l-3.954-5.856a34.045 34.045 0 01-7.524 4.806c-2.746 1.29-5.767 1.934-9.063 1.934-3.075 0-5.876-.497-8.403-1.492-2.526-.994-4.687-2.394-6.48-4.198-1.795-1.805-3.186-3.96-4.175-6.465-.989-2.504-1.483-5.303-1.483-8.397 0-3.094.513-5.912 1.538-8.453 1.025-2.542 2.435-4.733 4.229-6.575 1.794-1.842 3.973-3.26 6.536-4.254 2.563-.995 5.382-1.492 8.458-1.492 2.783 0 5.364.553 7.744 1.658s4.669 2.615 6.866 4.53l4.503-5.856c-2.197-2.137-4.888-3.978-8.073-5.525-3.186-1.547-6.976-2.32-11.37-2.32-4.027 0-7.853.626-11.478 1.878-3.625 1.252-6.793 3.094-9.502 5.525-2.71 2.43-4.852 5.396-6.426 8.895-1.575 3.499-2.362 7.495-2.362 11.989 0 4.42.732 8.38 2.197 11.878 1.465 3.5 3.515 6.446 6.151 8.84 2.637 2.394 5.73 4.217 9.283 5.47C596.98 79.374 600.843 80 605.017 80zm64.92 0c4.686 0 8.86-.81 12.522-2.43 3.662-1.622 6.664-3.61 9.008-5.968V41.105h-22.848v7.624h14.39v18.895c-1.392 1.326-3.186 2.376-5.383 3.15-2.197.773-4.577 1.16-7.14 1.16-3.515 0-6.664-.7-9.447-2.1-2.783-1.4-5.108-3.388-6.975-5.967-1.868-2.578-3.296-5.69-4.284-9.337-.989-3.646-1.483-7.753-1.483-12.32 0-4.494.53-8.545 1.593-12.155 1.062-3.61 2.581-6.685 4.558-9.226 1.978-2.542 4.34-4.494 7.085-5.857 2.747-1.362 5.804-2.044 9.173-2.044 3.515 0 6.407.626 8.677 1.879a23.655 23.655 0 016.042 4.751l5.163-5.856a32.515 32.515 0 00-3.46-3.205c-1.282-1.031-2.747-1.97-4.394-2.817-1.648-.848-3.46-1.529-5.438-2.045-1.977-.515-4.174-.773-6.59-.773-4.687 0-8.99.865-12.907 2.597a28.812 28.812 0 00-10.106 7.403c-2.82 3.204-5.017 7.145-6.591 11.823-1.575 4.678-2.362 9.926-2.362 15.746 0 5.893.77 11.179 2.307 15.856 1.538 4.678 3.698 8.62 6.481 11.823 2.783 3.205 6.078 5.654 9.886 7.349 3.808 1.694 7.982 2.541 12.523 2.541zm53.934-1.326V47.182c3.223-5.598 6.683-9.558 10.38-11.878 3.699-2.32 7.562-3.48 11.59-3.48 2.123 0 3.826.147 5.108.441 1.281.295 2.874.774 4.778 1.437l2.087-7.846c-1.684-.81-3.369-1.38-5.053-1.712-1.684-.332-3.515-.498-5.492-.498-4.98 0-9.502 1.253-13.566 3.757-4.065 2.505-7.488 5.93-10.271 10.277h-.33l-.769-12.708h-7.47v53.702h9.008zM791.757 80c3.808 0 7.524-.847 11.149-2.541 3.625-1.695 6.939-3.72 9.941-6.078h.33l.769 7.293h7.36V45.746c0-6.704-1.777-12.063-5.328-16.077-3.552-4.015-8.99-6.023-16.312-6.023-2.344 0-4.65.24-6.92.719a46.811 46.811 0 00-6.427 1.823 50.462 50.462 0 00-5.712 2.486c-1.794.92-3.35 1.823-4.668 2.707l3.515 6.188c2.49-1.547 5.346-3.002 8.568-4.365a25.685 25.685 0 0110.106-2.044c2.563 0 4.741.369 6.536 1.105 1.794.737 3.24 1.713 4.338 2.928a11.378 11.378 0 012.417 4.255c.513 1.62.806 3.351.879 5.193-6.884.59-12.779 1.4-17.685 2.43-4.907 1.032-8.916 2.358-12.029 3.979-3.112 1.62-5.382 3.554-6.81 5.8-1.428 2.248-2.142 4.881-2.142 7.901 0 2.431.476 4.586 1.428 6.464a13.986 13.986 0 003.9 4.752c1.647 1.289 3.57 2.283 5.766 2.983 2.197.7 4.54 1.05 7.03 1.05zm2.416-7.293c-1.538 0-3.02-.166-4.449-.497-1.428-.332-2.673-.847-3.734-1.547a8.471 8.471 0 01-2.582-2.652c-.659-1.068-.988-2.376-.988-3.923 0-1.768.476-3.37 1.428-4.806.952-1.437 2.581-2.726 4.888-3.868 2.307-1.141 5.382-2.117 9.227-2.928 3.845-.81 8.623-1.436 14.335-1.878V64.75c-3.076 2.579-6.097 4.55-9.062 5.912-2.966 1.363-5.987 2.044-9.063 2.044zM873.812 80c2.93 0 5.858-.313 8.788-.94 2.929-.625 5.602-1.38 8.019-2.264l-1.978-6.63a39.447 39.447 0 01-5.931 1.768c-2.05.442-4.358.663-6.92.663-2.564 0-4.724-.313-6.482-.94-1.757-.626-3.149-1.565-4.174-2.817-1.025-1.253-1.757-2.781-2.197-4.586-.44-1.805-.659-3.923-.659-6.353V32.376h26.253v-7.404h-26.253V9.945h-7.47L853.6 24.972l-15.378.553v6.85h15.049V57.79c0 3.315.348 6.335 1.043 9.06.696 2.726 1.831 5.065 3.405 7.017 1.575 1.953 3.68 3.463 6.317 4.53 2.636 1.069 5.895 1.603 9.776 1.603zm41.961-1.326V41.215c1.538-1.62 3.003-3.038 4.394-4.254 1.392-1.215 2.746-2.228 4.065-3.038 1.318-.81 2.654-1.418 4.009-1.824 1.355-.405 2.838-.607 4.449-.607 4.394 0 7.543 1.234 9.447 3.701 1.904 2.468 2.856 6.243 2.856 11.326v32.155H954v-33.37c0-7.146-1.483-12.542-4.449-16.188-2.966-3.646-7.634-5.47-14.005-5.47-4.174 0-7.873.995-11.095 2.984-3.222 1.989-6.261 4.493-9.117 7.514l.44-12.708V0h-9.008v78.674h9.007z"/>
        <path id="first-m" d="M7.695 79.676V38.959c0-1.472-.037-3.2-.11-5.187-.073-1.986-.183-3.99-.33-6.013-.146-2.023-.293-4.01-.44-5.959-.146-1.95-.256-3.66-.33-5.131h.33l4.837 15.448 9.894 27.917h4.947l9.894-27.917 4.726-15.448h.33a121.503 121.503 0 00-.384 5.131c-.11 1.95-.22 3.936-.33 5.959-.11 2.023-.202 4.027-.275 6.013-.073 1.987-.11 3.715-.11 5.187v40.717h7.805V7.29H38.035L27.922 38.076l-3.518 11.696h-.44l-3.627-11.696L10.113 7.29H0v72.386h7.695z"/>
        <path id="last-m" d="M517.69 78.674V37.901c0-1.474-.037-3.205-.11-5.194a170.518 170.518 0 00-.33-6.022c-.147-2.026-.293-4.015-.44-5.967a207.215 207.215 0 01-.329-5.138h.33l4.833 15.47 9.886 27.956h4.943l9.886-27.956 4.724-15.47h.33a121.926 121.926 0 00-.385 5.138c-.11 1.952-.22 3.941-.33 5.967-.11 2.026-.201 4.033-.274 6.022-.074 1.99-.11 3.72-.11 5.194v40.773h7.799V6.188h-10.106L537.9 37.017l-3.515 11.712h-.44l-3.624-11.712-10.216-30.83H510v72.487h7.69z"/>
        <polygon id="left-carret" points="335.341837 82.9241379 335.341837 68.2482759 306.272959 49.9310345 306.272959 49.4896552 335.341837 31.1724138 335.341837 16.4965517 293 44.0827586 293 55.337931"/>
        <polygon id="slash" points="367.701531 104 403.790816 8 390.298469 8 354.209184 104"/>
        <polygon id="right-carret" points="422.658163 82.9241379 465 55.337931 465 44.0827586 422.658163 16.4965517 422.658163 31.1724138 451.727041 49.4896552 451.727041 49.9310345 422.658163 68.2482759"/>
    </g>
</svg>
