<svg width="85" height="28" xmlns="http://www.w3.org/2000/svg">
  <path d="M12.06 21.07v-3.99L4.11 12.1v-.12L12.06 7V3.01L.48 10.51v3.06l11.58 7.5zm8.4.93v-6.39c0-.54-.02-1.205-.06-1.995-.04-.79-.09-1.605-.15-2.445-.06-.84-.12-1.655-.18-2.445a52.15 52.15 0 00-.18-1.965h.12l1.47 5.37 1.5 4.65h1.95l1.5-4.65 1.53-5.37h.09c-.06.52-.12 1.175-.18 1.965s-.12 1.605-.18 2.445c-.06.84-.11 1.655-.15 2.445-.04.79-.06 1.455-.06 1.995V22h3.57V2.44h-4.41l-1.89 6.93-.66 2.7H24l-.66-2.7-1.98-6.93h-4.41V22h3.51zm18 0v-6.39c0-.54-.02-1.205-.06-1.995-.04-.79-.09-1.605-.15-2.445-.06-.84-.12-1.655-.18-2.445a52.15 52.15 0 00-.18-1.965h.12l1.47 5.37 1.5 4.65h1.95l1.5-4.65 1.53-5.37h.09c-.06.52-.12 1.175-.18 1.965s-.12 1.605-.18 2.445c-.06.84-.11 1.655-.15 2.445-.04.79-.06 1.455-.06 1.995V22h3.57V2.44h-4.41l-1.89 6.93-.66 2.7H42l-.66-2.7-1.98-6.93h-4.41V22h3.51zm18.45 4.8L66.78.7h-3.69l-9.87 26.1h3.69zm15.03-5.73l11.58-7.5v-3.06l-11.58-7.5V7l7.95 4.98v.12l-7.95 4.98v3.99z" fill="#230750" fill-rule="nonzero"/>
</svg>
