<?xml version="1.0" encoding="UTF-8"?>
<svg width="199px" height="64px" viewBox="0 0 199 64" version="1.1" xmlns="http://www.w3.org/2000/svg" xmlns:xlink="http://www.w3.org/1999/xlink">
    <title>nav-logo</title>
    <g id="Page-1" stroke="none" stroke-width="1" fill="none" fill-rule="evenodd">
        <g id="nav-logo" transform="translate(0.480000, 0.700000)" fill="#230750" fill-rule="nonzero">
            <path d="M27.9918208,48.6885057 L27.9918208,39.2103448 L9.13163295,27.3804598 L9.13163295,27.0954023 L27.9918208,15.2655172 L27.9918208,5.78735632 L0.52,23.6034483 L0.52,30.8724138 L27.9918208,48.6885057 Z M47.9195665,50.8977011 L47.9195665,35.7183908 C47.9195665,34.4356322 47.8721195,32.8559387 47.7772254,30.9793103 C47.6823314,29.102682 47.5637139,27.1666667 47.4213728,25.1712644 C47.2790318,23.1758621 47.1366908,21.2398467 46.9943497,19.3632184 C46.8520087,17.48659 46.7096676,15.9306513 46.5673266,14.6954023 L46.5673266,14.6954023 L46.8520087,14.6954023 L50.3393642,27.4517241 L53.8978902,38.4977011 L58.523974,38.4977011 L62.0825,27.4517241 L65.7121965,14.6954023 L65.9257081,14.6954023 C65.7833671,15.9306513 65.641026,17.48659 65.498685,19.3632184 C65.3563439,21.2398467 65.2140029,23.1758621 65.0716618,25.1712644 C64.9293208,27.1666667 64.8107033,29.102682 64.7158092,30.9793103 C64.6209152,32.8559387 64.5734682,34.4356322 64.5734682,35.7183908 L64.5734682,35.7183908 L64.5734682,50.8977011 L73.0427601,50.8977011 L73.0427601,4.43333333 L62.5806936,4.43333333 L58.0969509,20.8954023 L56.5311994,27.3091954 L56.3176879,27.3091954 L54.7519364,20.8954023 L50.0546821,4.43333333 L39.5926156,4.43333333 L39.5926156,50.8977011 L47.9195665,50.8977011 Z M90.6218786,50.8977011 L90.6218786,35.7183908 C90.6218786,34.4356322 90.5744316,32.8559387 90.4795376,30.9793103 C90.3846435,29.102682 90.266026,27.1666667 90.123685,25.1712644 C89.9813439,23.1758621 89.8390029,21.2398467 89.6966618,19.3632184 C89.5543208,17.48659 89.4119798,15.9306513 89.2696387,14.6954023 L89.2696387,14.6954023 L89.5543208,14.6954023 L93.0416763,27.4517241 L96.6002023,38.4977011 L101.226286,38.4977011 L104.784812,27.4517241 L108.414509,14.6954023 L108.62802,14.6954023 C108.485679,15.9306513 108.343338,17.48659 108.200997,19.3632184 C108.058656,21.2398467 107.916315,23.1758621 107.773974,25.1712644 C107.631633,27.1666667 107.513015,29.102682 107.418121,30.9793103 C107.323227,32.8559387 107.27578,34.4356322 107.27578,35.7183908 L107.27578,35.7183908 L107.27578,50.8977011 L115.745072,50.8977011 L115.745072,4.43333333 L105.283006,4.43333333 L100.799263,20.8954023 L99.2335116,27.3091954 L99.02,27.3091954 L97.4542486,20.8954023 L92.7569942,4.43333333 L82.2949277,4.43333333 L82.2949277,50.8977011 L90.6218786,50.8977011 Z M134.391749,62.3 L157.80685,0.3 L149.052876,0.3 L125.637775,62.3 L134.391749,62.3 Z M170.048179,48.6885057 L197.52,30.8724138 L197.52,23.6034483 L170.048179,5.78735632 L170.048179,15.2655172 L188.908367,27.0954023 L188.908367,27.3804598 L170.048179,39.2103448 L170.048179,48.6885057 Z" id="&lt;MM/&gt;"></path>
        </g>
    </g>
</svg>